<svg xmlns="http://www.w3.org/2000/svg" viewBox="0 0 87.3 78">
  <path fill="#4285F4" d="m6.6 66.85 3.85 6.65c.8 1.4 1.95 2.5 3.3 3.3l13.75-23.8h-27.5c0 1.55.4 3.1 1.2 4.5z"/>
  <path fill="#00AC47" d="m43.65 25-13.75-23.8c-1.35.8-2.5 1.9-3.3 3.3l-25.4 44a9.06 9.06 0 0 0-1.2 4.5h27.5z"/>
  <path fill="#FFBA00" d="m73.55 76.8c1.35-.8 2.5-1.9 3.3-3.3l1.6-2.75 7.65-13.25c.8-1.4 1.2-2.95 1.2-4.5h-27.502l5.852 11.5z"/>
  <path fill="#00832D" d="m43.65 25 13.75-23.8c-1.35-.8-2.9-1.2-4.5-1.2h-18.5c-1.6 0-3.15.45-4.5 1.2z"/>
  <path fill="#2684FC" d="m59.8 53h27.5c0-1.55-.4-3.1-1.2-4.5l-25.4-44c-.8-1.4-1.95-2.5-3.3-3.3l-13.75 23.8z"/>
  <path fill="#FFBA00" d="m43.65 53h-27.5l13.75 23.8c1.35.8 2.9 1.2 4.5 1.2h18.5c1.6 0 3.15-.45 4.5-1.2z"/>
</svg>
