<svg xmlns="http://www.w3.org/2000/svg" viewBox="0 0 92 45">
  <path fill="#008FD3" d="M0 0h92v45H0z"/>
  <path fill="#FFF" d="M23.7 32h-8.9v-2.4h8.9c1.2 0 2.1-.9 2.1-2.1v-5.8c0-1.2-.9-2.1-2.1-2.1h-8.9v-2.4h8.9c2.5 0 4.5 2 4.5 4.5v5.8c0 2.5-2 4.5-4.5 4.5m33.7 0h-8.9v-2.4h8.9c1.2 0 2.1-.9 2.1-2.1v-5.8c0-1.2-.9-2.1-2.1-2.1h-8.9v-2.4h8.9c2.5 0 4.5 2 4.5 4.5v5.8c0 2.5-2 4.5-4.5 4.5"/>
  <path fill="#FFF" d="M76.8 32h-8.9v-2.4h8.9c1.2 0 2.1-.9 2.1-2.1v-5.8c0-1.2-.9-2.1-2.1-2.1h-8.9v-2.4h8.9c2.5 0 4.5 2 4.5 4.5v5.8c0 2.5-2 4.5-4.5 4.5"/>
</svg>
